<svg width="700" height="700" xmlns="http://www.w3.org/2000/svg" version="1.1">

 <g>
  <title>Layer 1</title>
  <path id="svg_26" d="m553.10602,337.98932c-2.37701,-15.74013 -10.81851,-29.69663 -18.97762,-43.20415c-9.26103,-15.31581 -18.00481,-29.78709 -18.62156,-46.56088c-0.08673,-2.32562 -0.00964,-4.65124 0.07067,-6.98014c0.09637,-2.89097 0.19274,-5.88152 -0.01285,-8.87865c-0.8159,-11.68278 -6.11925,-23.5037 -16.69732,-37.19377c-13.70323,-17.74742 -29.25011,-30.83062 -46.20728,-38.87132c-9.53404,-4.51638 -23.23398,-8.50613 -34.3255,-1.8342c-0.56535,0.34049 -0.92191,0.89296 -1.05036,1.49688c-4.25619,-5.57635 -8.97486,-10.44271 -14.15633,-14.45155c-17.58378,-13.61031 -40.48636,-17.15288 -58.36289,-9.04887c-13.07333,5.92971 -24.13031,18.11994 -32.86094,36.22754c-7.08293,14.6892 -8.17827,26.30783 -3.36315,35.50801c0.61353,1.15964 1.31704,2.27102 2.02687,3.37606c1.02149,1.59646 1.98838,3.10938 2.57939,4.71554c2.27422,6.22204 -1.38126,13.14076 -3.75827,16.71952c-1.32986,1.998 -2.8075,3.89642 -4.29155,5.79805c-2.61154,3.35673 -5.31946,6.83237 -7.23391,10.84154c-2.39313,5.00459 -3.38888,10.73875 -3.11908,16.71952c-26.62607,18.42831 -49.86005,39.93376 -69.05641,63.91359c-9.77827,12.2066 -18.62156,25.27664 -26.2955,38.84171c-13.88332,24.55052 -23.89266,50.499 -29.73857,77.11191c-0.55571,2.5312 -1.06006,5.02071 -1.53224,7.47806c-1.16926,-3.24111 -2.56015,-6.2028 -4.28826,-8.95594c-3.9382,-6.27664 -8.61221,-12.55691 -13.32085,-11.55778c-5.95544,1.27206 -4.95961,12.34475 -0.48504,36.68311c0.83195,4.51638 1.6157,8.78572 1.64465,10.25029c0.14776,7.01871 -1.01829,14.18182 -2.14578,21.11731c-0.48504,2.98414 -0.9701,5.96827 -1.36194,8.95594c-2.18755,16.68416 -1.48405,33.47769 2.08476,49.91761c0.67778,3.13191 2.7529,12.6597 10.26015,15.15874c1.14673,0.37904 2.29355,0.5525 3.43066,0.5525c5.51534,0 10.68036,-4.14378 13.02234,-9.07765c2.40275,-5.07531 2.54732,-10.6228 2.68539,-15.99341l0.04176,-1.54186c0.4465,-14.94001 3.16727,-25.86131 8.56041,-34.36744c2.23245,-3.52383 5.04316,-6.79701 7.7639,-9.96412l2.18755,-2.56977c3.42104,-4.06985 5.40934,-7.34953 7.68685,-11.63179c1.93057,-3.62983 4.314,-7.14716 6.62358,-10.5455c3.31175,-4.87614 6.73279,-9.91642 9.06202,-15.61431c0.78699,-1.93378 0.22486,-3.16727 -0.3694,-3.83541c-0.67778,-0.78699 -1.57081,-1.00546 -1.87918,-1.07289c-4.80871,-1.21425 -9.43125,0.44328 -13.658,2.82674c11.9303,-14.93014 26.80616,-28.16464 43.76662,-38.76853c28.01333,-17.51635 62.34213,-28.90638 102.01768,-33.92092c2.08147,5.43828 3.69405,11.60548 4.79901,18.63718l0.30516,1.9948c0.73238,4.84399 1.49046,9.85475 3.85465,14.40056c4.00563,7.71892 11.79872,12.44754 18.05251,16.25079c5.53145,3.35673 11.79872,7.1664 18.99078,8.14291c8.45433,1.15635 16.41115,-1.79563 24.10153,-4.63841c4.90501,-1.81487 9.97398,-3.68764 15.00744,-4.40396c13.1827,-1.88238 26.28234,3.91567 38.9445,9.5143l4.64162,2.03657c2.71754,1.18851 5.40292,2.27102 8.37127,2.56977c0.5525,0.05461 1.10175,0.07709 1.64465,0.07709c4.38464,0 8.51518,-1.67031 12.35133,-3.52704c12.92284,-6.22204 22.43057,-13.99844 28.27401,-23.13119c7.33029,-11.4517 8.59248,-25.70096 3.22508,-36.29168c-2.45094,-4.82154 -5.95865,-8.54807 -9.76182,-11.4517c4.80222,-0.48504 9.12617,-2.84599 13.14076,-5.37077c4.50034,-2.82674 9.14179,-5.9811 12.20331,-10.645c3.67481,-5.58926 4.85361,-12.97054 3.50771,-21.93306l0.00105,-0.00052zm-251.08881,-90.34888c1.69925,-3.55911 4.13408,-6.69101 6.71355,-10.00277c1.54827,-1.9948 3.09334,-3.97989 4.49064,-6.06786c4.94678,-7.42658 6.45657,-14.83722 4.25619,-20.85664c-0.76451,-2.08476 -1.91446,-3.8836 -3.02591,-5.61813c-0.63923,-0.99575 -1.27526,-1.9948 -1.82458,-3.03553c-4.0442,-7.7093 -2.88776,-18.26467 3.42745,-31.37007c8.25203,-17.10848 18.55084,-28.55689 30.61846,-34.03687c16.33385,-7.40413 37.38373,-4.07947 53.63123,8.49627c13.6358,10.55866 24.12045,27.31354 30.33311,48.44976c0.6585,2.25177 1.23349,4.44245 0.98613,6.48543c-0.36298,2.97452 -2.55052,5.90726 -6.00043,8.05303c-2.42199,1.5065 -5.13312,2.51837 -8.00484,3.58805c-1.01829,0.38225 -2.02687,0.76129 -3.02912,1.16606c-11.40647,4.56456 -20.96272,12.1071 -26.89908,21.23902c-6.69101,10.29222 -8.86878,22.93219 -5.83012,33.80497c0.52359,1.87918 1.20783,3.72612 1.88238,5.56673c1.09213,2.95527 2.12324,5.75307 2.47339,8.64757c0.59105,4.93716 -1.06327,10.02497 -4.32362,13.27644c-3.47243,3.45952 -10.26262,6.33125 -14.40961,5.18451c-10.0702,-5.48968 -24.97155,-10.72559 -36.00222,-0.16703c-1.95302,1.86947 -3.58805,4.00563 -5.06569,6.24778c-8.14612,-7.8153 -16.38565,-15.96133 -21.74064,-25.92545c-6.13849,-11.39661 -7.12792,-23.78 -2.65652,-33.12409l-0.00016,-0.00122zm-98.61325,119.75524c7.5487,-13.34634 16.25737,-26.20833 25.88104,-38.23155c18.41269,-23.00291 40.63109,-43.67288 66.0171,-61.52309c0.87051,5.11708 2.62437,10.31114 5.31946,15.31252c3.32787,6.18989 7.63866,11.6285 12.30939,16.69732c-23.53248,17.9563 -51.57542,42.9887 -69.90423,62.41614c-22.83597,24.20103 -39.66404,47.02056 -51.44385,69.76608c-0.92191,1.76989 -1.81487,3.54948 -2.67897,5.34511c-0.04497,0.09637 -0.04497,0.20237 -0.07709,0.30516c-6.81634,4.0474 -12.52155,9.85804 -16.90865,17.11177c0.6585,-3.69726 1.38126,-7.47477 2.23895,-11.37111c5.74666,-26.1631 15.58224,-51.67492 29.24682,-75.82744l0.00004,-0.0009zm-5.9811,103.03736c1.78601,-2.26139 3.85465,-3.6651 6.24778,-5.29051c4.27223,-2.90059 8.75365,-5.60851 13.17612,-5.27127c-2.12324,4.81192 -5.0624,9.13521 -8.15582,13.69994c-2.38022,3.5045 -4.83437,7.12471 -6.87415,10.97311c-2.13295,4.01204 -3.98318,7.07011 -7.14716,10.83167l-2.1586,2.5312c-2.82354,3.29572 -5.74345,6.70064 -8.14941,10.50109c-5.85907,9.23225 -8.80793,20.892 -9.28323,36.69627l-0.04176,1.5611c-0.12527,4.88897 -0.25376,9.94191 -2.23895,14.13413c-1.92408,4.03778 -6.61396,7.51975 -10.84154,6.12567c-3.37606,-1.12428 -5.73703,-4.97252 -7.21459,-11.76912c-3.45311,-15.9194 -4.13087,-32.18006 -2.01725,-48.3371c0.38225,-2.94236 0.86731,-5.8751 1.33949,-8.81779c1.15964,-7.13754 2.36098,-14.50993 2.20679,-21.95526c-0.04176,-1.82778 -0.74523,-5.66952 -1.72178,-10.98215c-1.4519,-7.89885 -5.30975,-28.8776 -3.08051,-31.34786c0,0 0.01284,-0.00322 0.04176,-0.00322c0.32122,0 2.68539,0.35977 8.53163,9.68781c3.51733,5.61492 5.66952,12.32172 6.99939,21.75955c0.14134,1.04073 0.9701,1.84702 2.01725,1.97227c1.06968,0.09315 2.03016,-0.47862 2.40917,-1.4519c4.0474,-10.40406 10.21493,-18.30003 18.3543,-23.51357c1.85023,11.61863 2.60192,22.63286 -2.96169,31.2903c-0.0514,0.07389 -0.09637,0.14776 -0.14134,0.22486c-0.66172,1.07289 -0.33728,2.47339 0.72917,3.15115c1.06006,0.67135 2.46698,0.37261 3.15756,-0.68098c0.03534,-0.0514 0.07067,-0.09637 0.09637,-0.14134c0.4754,-0.67778 1.69605,-1.5162 2.78176,-2.26139c0.30837,-0.212 0.60711,-0.44328 0.92191,-0.66172c0.55571,-0.13491 1.08572,-0.41116 1.41983,-0.93474c0.09315,-0.14776 0.20237,-0.2891 0.29553,-0.43686c0.46256,-0.42722 0.93153,-0.81911 1.30092,-1.28168l0.00106,-0.00164zm49.56155,-54.64927c-20.98574,13.11856 -38.85158,30.18181 -52.07951,49.50316c1.72178,-8.5637 0.48826,-18.02373 -1.08572,-27.21732c-0.01284,-0.08352 -0.07709,-0.14776 -0.10279,-0.23128c0.63923,-1.29771 1.28168,-2.60192 1.94661,-3.89001c11.58327,-22.35738 28.16464,-44.83893 50.70129,-68.72831c18.27454,-19.36 46.28129,-44.35129 69.70194,-62.19164c0.01285,-0.00964 0.01928,-0.02891 0.03212,-0.03534c2.59871,2.65652 5.25836,5.23591 7.91167,7.77673c-5.13312,10.38515 -5.80126,23.25947 -1.20783,35.05491c2.11042,5.40934 4.57418,9.64012 7.54229,12.92613c1.76989,1.96264 3.75827,3.63945 5.68243,5.26798c1.19813,1.01187 2.39955,2.02045 3.53666,3.10296c4.02166,3.81288 7.33029,8.5637 10.01592,14.25583c-39.78985,5.18772 -74.32423,16.72281 -102.59331,34.40609l-0.00178,0.0001zm282.9128,-26.30454c4.65124,9.15824 3.47564,21.61153 -2.98734,31.72367c-5.37406,8.40005 -14.25583,15.62418 -26.395,21.4668c-3.70688,1.79242 -7.67073,3.39851 -11.54463,3.00659c-2.30317,-0.22486 -4.61917,-1.16926 -6.98977,-2.20679l-4.61275,-2.02687c-11.43526,-5.06569 -23.21424,-10.27249 -35.54912,-10.27249c-1.95302,0 -3.92208,0.12849 -5.90405,0.41438c-5.52175,0.78699 -10.82509,2.74969 -15.95476,4.64803c-7.4973,2.77535 -14.56091,5.37406 -21.88783,4.39434c-6.24457,-0.85127 -12.07502,-4.38785 -17.21785,-7.51975c-5.76911,-3.5045 -12.94833,-7.86028 -16.35687,-14.43592c-2.01083,-3.87389 -2.67897,-8.28739 -3.38568,-12.96807l-0.30837,-2.01725c-1.21425,-7.71892 -3.02912,-14.47457 -5.39651,-20.42656c0.00322,-0.11564 0.04176,-0.21522 0.02891,-0.33728c-0.06425,-0.54929 -0.34692,-1.00866 -0.71311,-1.36843c-3.07089,-7.1761 -7.02833,-13.08649 -11.97223,-17.77621c-1.20134,-1.13711 -2.46377,-2.20679 -3.73582,-3.27327c-1.8888,-1.59646 -3.67481,-3.10938 -5.23591,-4.83437c-2.58901,-2.86852 -4.76694,-6.63 -6.66856,-11.51255c-5.63104,-14.44168 -2.58901,-30.67027 7.56474,-40.38686c8.32604,-7.96628 21.05317,-6.00363 38.91572,6.00363c8.83342,5.92971 17.31406,11.90727 24.02094,19.76788c1.48405,1.73461 2.86852,3.5559 4.25619,5.37727c2.36098,3.09334 4.79901,6.29589 7.7093,9.10314c6.43404,6.19959 14.52555,9.87777 21.58933,12.6597c13.7353,5.40934 28.11366,9.06202 42.73871,10.85058c3.0195,0.37262 6.06465,0.66814 9.10972,0.95727c7.58085,0.72917 15.42189,1.47764 22.75868,3.53345c6.63641,1.85985 18.61498,6.59143 24.12374,17.4555l0.00019,0.00045zm15.84868,-32.08384c-2.55694,3.89642 -6.74241,6.71996 -10.81193,9.27994c-3.97348,2.49913 -8.34496,4.87614 -12.57253,4.85361c-3.17689,-0.06103 -6.24778,-1.42624 -9.49539,-2.87493c-1.05356,-0.46898 -2.104,-0.93474 -3.16406,-1.36194c-6.4148,-2.57297 -15.84621,-3.37606 -22.44044,-2.99696c-1.27526,-0.12849 -2.55694,-0.25698 -3.8225,-0.38225c-2.99696,-0.2891 -6.00363,-0.58141 -8.98802,-0.94436c-14.23363,-1.74423 -28.23207,-5.29693 -41.60802,-10.56524c-6.64603,-2.61475 -14.23034,-6.05503 -20.08283,-11.69593c-2.65331,-2.56015 -4.88256,-5.47685 -7.23391,-8.57027c-1.43586,-1.8888 -2.87814,-3.7776 -4.41038,-5.57635c-0.27625,-0.32122 -0.59426,-0.59747 -0.87372,-0.91229c1.69925,-0.5525 3.81288,-0.58462 5.89122,-0.50753l19.48829,0.70347c-0.06425,0.64566 -0.09315,1.2945 -0.02891,1.94661c0.36298,3.73582 2.83316,7.32059 6.43404,9.35724c2.00763,1.13711 4.1534,1.72178 6.24457,1.72178c0.81911,0 1.62541,-0.09315 2.40917,-0.27304c3.2893,-0.75487 5.97789,-3.19934 6.85803,-6.22525c1.40371,-4.78939 -1.7828,-9.41151 -5.22629,-12.14246c-0.85127,-0.67135 -2.01083,-1.50971 -3.43066,-1.9434c-1.50009,-0.45614 -3.14474,-0.41759 -4.73478,0.08352c-0.60711,-0.67135 -1.58043,-0.96689 -2.4766,-0.63923c-1.81487,0.63602 -3.33428,1.93057 -4.41679,3.5559l-20.96272,-0.75487c-2.47339,-0.07709 -6.32163,-0.18952 -9.45016,1.58043c-2.67576,-2.63399 -5.49289,-5.10738 -8.45104,-7.41055c0.43365,-0.23128 0.87372,-0.43686 1.30733,-0.68741c8.79477,-4.98855 18.67254,-7.8699 28.75918,-8.45433c0.14776,0.5525 0.31159,1.06006 0.4754,1.43586c1.31383,3.07089 2.8075,3.45952 5.34191,3.87389c1.75386,0.28589 3.38568,0.43365 4.91471,0.43365c6.16744,0 10.68365,-2.36739 14.58312,-7.47477c0.63923,-0.83836 0.62959,-2.00442 -0.0289,-2.82674c-4.12125,-5.20696 -10.25686,-8.7405 -16.8256,-9.69768c-2.67897,-0.38546 -4.72837,0.51717 -5.48968,2.42841c-0.46898,1.18209 0.10601,2.52479 1.28809,2.98734c1.03111,0.40153 2.20038,0.01928 2.78176,-0.88976c0.15097,-0.01928 0.41116,-0.02891 0.75165,0.03212c4.81833,0.70026 9.34408,3.07731 12.67861,6.60755c-2.99696,3.3439 -6.71355,5.03674 -13.9121,3.86427c-0.49789,-0.08352 -1.25273,-0.2088 -1.40371,-0.28589c-0.01928,-0.01927 -0.1574,-0.16703 -0.44971,-0.85127c-0.01285,-0.03534 -0.01928,-0.07066 -0.03212,-0.10601c0.68741,-0.40153 1.16606,-1.11466 1.16606,-1.96585c0,-0.49789 -0.19274,-0.93474 -0.46577,-1.30733c0.24413,-0.31801 0.44328,-0.68741 0.49147,-1.11466c0.14134,-1.26243 -0.76129,-2.40275 -2.02045,-2.55694c-1.34911,-0.1574 -2.55052,0.35334 -3.32787,1.39409c-0.30837,0.41438 -0.45934,0.92191 -0.6039,1.41983c-10.85058,0.59747 -21.4997,3.69405 -31.16777,9.17715c-1.02149,0.58141 -1.98838,1.12749 -2.8589,1.22387c-0.10601,0.01285 -0.19274,0.07067 -0.29553,0.09315c-2.62437,-1.89842 -5.27127,-3.73903 -7.89243,-5.50251c-0.52359,-0.35013 -1.14353,-0.76451 -1.80846,-1.20134c4.11163,-1.11787 8.14941,-3.42745 10.7996,-6.06465c0.07709,-0.07709 0.14134,-0.16703 0.21522,-0.24413c0.76129,-0.00964 1.49688,-0.38546 1.93057,-1.08251c2.08476,-3.36315 6.54004,-4.71554 11.03725,-5.67273c20.18233,-4.32041 41.54387,-4.74441 61.92521,-1.29771c-0.72275,1.04394 -0.46898,2.47339 0.57499,3.19934c0.29552,0.2088 0.62959,0.33728 0.96689,0.38546c0.47862,1.09534 1.17568,2.09438 2.04619,2.88776c2.05902,1.87918 4.99176,2.87493 8.39347,2.87493c0.59426,0 1.21104,-0.03212 1.82778,-0.09315c3.76148,-0.37261 6.58181,-1.81487 8.15582,-4.15981c2.41879,-3.62012 1.24952,-8.9395 -2.56656,-11.60877c-3.12229,-2.19717 -7.50693,-2.44453 -11.44183,-0.65529c-0.99896,0.45934 -1.95623,1.03111 -2.88135,1.7282c-0.77735,-0.23449 -1.64786,-0.04176 -2.2646,0.57177c-0.17025,0.17025 -0.27625,0.39189 -0.42722,0.58141c-21.43144,-3.83541 -43.98783,-3.47243 -65.26549,1.08251c-2.35456,0.50111 -4.79901,1.15964 -7.06361,2.1554c0.60711,-2.48301 0.79984,-5.09776 0.48826,-7.72854c-0.20237,-1.68963 -0.59426,-3.31496 -1.06968,-4.89859c7.67715,-9.13192 18.58866,-15.15546 31.93583,-17.59612c0.01927,0.6296 0.27625,1.25273 0.79984,1.68963c0.79984,0.67135 1.9434,0.7099 2.77535,0.13813c0.87051,1.24952 2.03016,2.35777 3.43066,3.24111c2.83316,1.80525 6.0968,2.40917 8.62455,2.7432c0.86731,0.10921 1.77639,0.20237 2.70792,0.20237c1.52582,0 3.09334,-0.24413 4.55494,-1.01187c3.15436,-1.66389 4.92754,-5.52504 4.32041,-9.40247c-0.6039,-3.76148 -3.07089,-6.53041 -5.03354,-8.18789c-1.03753,-0.87051 -2.64361,-2.06223 -4.71234,-2.27422c-2.27422,-0.26661 -4.28826,0.77735 -5.94582,1.80525c-0.30516,0.18952 -0.61353,0.38225 -0.91229,0.58141c-0.45934,-0.67778 -1.26243,-1.07609 -2.12324,-1.01187c-3.28289,0.29873 -6.0325,3.15436 -6.60426,6.56257c-14.60285,2.13615 -26.74449,8.13329 -35.53679,17.54513c-0.61353,-1.66389 -1.23028,-3.32787 -1.70246,-5.02712c-2.68859,-9.61381 -0.72275,-20.85006 5.25515,-30.05352c5.42866,-8.34496 14.21718,-15.25825 24.74706,-19.47595c0.9701,-0.38546 1.95302,-0.75487 2.93916,-1.11787c2.95198,-1.10504 6.01005,-2.24857 8.81779,-3.9928c4.64803,-2.88135 7.60651,-7.04116 8.14291,-11.41634c0.35013,-2.90708 -0.3694,-5.7113 -1.13711,-8.33591c-3.78401,-12.89077 -9.16482,-24.18459 -15.82318,-33.62242c0.49147,0.06103 1.00866,0 1.46473,-0.27304c9.84241,-5.91688 23.0062,-1.26243 29.9828,2.0494c16.29191,7.72854 31.27714,20.34926 44.53385,37.52188c9.9929,12.93847 14.99757,23.96338 15.74342,34.69802c0.19274,2.76252 0.10279,5.50251 0.00963,8.40334c-0.08352,2.43482 -0.16061,4.87294 -0.07388,7.30455c0.66172,17.96945 10.13105,33.63146 19.286,48.77705c7.93092,13.11527 16.12498,26.67706 18.36417,41.50523c1.16926,7.79606 0.22486,14.09548 -2.81071,18.71448l-0.00149,0.00145zm-112.10761,-33.60597c0.99896,-0.79984 2.56015,-1.50009 3.89963,-1.08572c0.67135,0.20237 1.3459,0.69062 1.91125,1.14353c2.16823,1.7185 4.42962,4.64162 3.6651,7.24353c-0.41438,1.42624 -1.81487,2.64361 -3.47243,3.02591c-1.62862,0.38225 -3.58805,0.03212 -5.35153,-0.9701c-2.11683,-1.19813 -3.62012,-3.15436 -4.03449,-5.21338c1.00225,-1.53865 2.0494,-3.09013 3.38247,-4.14378zm32.04848,-32.90288c1.42624,-1.62541 2.89097,-2.77214 4.43924,-3.47564c2.41237,-1.09534 5.11708,-1.00866 6.88377,0.23128c1.7185,1.20783 2.38984,3.7711 1.37805,5.28089c-1.03753,1.54827 -3.43387,2.00442 -4.77656,2.13615c-1.64786,0.1574 -4.71875,0.17346 -6.66856,-1.60608c-0.6842,-0.61996 -1.15635,-1.59967 -1.25594,-2.56656l0,-0.00004zm-35.49156,-34.86495c1.69605,-1.47764 3.47243,-2.86531 5.40292,-4.05382c1.00546,-0.62317 2.23245,-1.20783 3.04836,-1.14353c0.6039,0.06424 1.32024,0.45934 2.21641,1.21425c1.93378,1.62862 3.16406,3.54948 3.45311,5.39651c0.29873,1.89201 -0.52038,3.87389 -1.91446,4.60634c-1.21425,0.64566 -2.96169,0.52038 -4.51317,0.31159c-2.05261,-0.26661 -4.68339,-0.74523 -6.75524,-2.05902c-0.97972,-0.62317 -1.71208,-1.43586 -2.25177,-2.31279c0.77093,-0.34692 1.27206,-1.09213 1.31383,-1.95944l0,-0.00009z"/>
  <ellipse fill="#396849" opacity="0.5" ry="311.0027" rx="301.99999" id="svg_68" cy="350.00001" cx="350.00001"/>
 </g>
</svg>